<?xml version="1.0" encoding="UTF-8" standalone="no"?>
<svg width="92px" height="128px" viewBox="0 0 92 128" version="1.1" xmlns="http://www.w3.org/2000/svg" xmlns:xlink="http://www.w3.org/1999/xlink">
    <!-- Generator: Sketch 48.1 (47250) - http://www.bohemiancoding.com/sketch -->
    <title>Shape</title>
    <desc>Created with Sketch.</desc>
    <defs></defs>
    <g id="2_Consideraciones" stroke="none" stroke-width="1" fill="none" fill-rule="evenodd" transform="translate(-142.000000, -106.000000)">
        <g id="Group-3" transform="translate(38.000000, 106.000000)" fill="#EF6461" fill-rule="nonzero">
            <g id="prayer" transform="translate(104.000000, 0.000000)">
                <path d="M91.3917984,64.4907442 C89.0000064,62.0925224 87.5349621,58.9098097 87.2659385,55.5285993 L86.9650011,51.7403937 C86.1626674,41.643762 81.7869821,32.1386234 74.6442679,24.9764573 L62.6294587,12.9300985 C61.8183986,12.116858 60.5031997,12.116858 59.692389,12.9300985 C56.9979142,15.6318168 55.6410778,19.1732753 55.6181397,22.7219837 L35.1730927,2.22222396 C32.2180715,-0.740741319 27.4103028,-0.740741319 24.4550322,2.22222396 C23.5838844,3.09571372 22.9715378,4.13145158 22.6140031,5.23318867 L22.4928303,5.1116901 C19.5380584,2.14872482 14.7300404,2.14872482 11.7747698,5.1116901 C10.3433847,6.54692328 9.55501331,8.45515092 9.55501331,10.4851271 C9.55501331,10.5418765 9.55775591,10.5978758 9.55925187,10.6541251 C9.46949422,10.6511252 9.37948724,10.6473752 9.28923094,10.6473752 C7.26469732,10.6473752 5.36183518,11.437866 3.93045002,12.8730991 C2.49906485,14.3083323 1.71069351,16.21656 1.71069351,18.2462862 C1.71069351,20.2760124 2.49906485,22.18424 3.93045002,23.6199732 L5.21897092,24.9119581 C4.12043704,25.2704539 3.0874761,25.8844467 2.21607894,26.7579364 C-0.738692979,29.7209017 -0.738692979,34.5418452 2.21607894,37.5048105 L5.31321645,40.6102741 C4.19498575,40.9762698 3.17000327,41.6017625 2.31431369,42.4597524 C0.882928533,43.8949856 0.0945571891,45.8034632 0.0945571891,47.8334395 C0.0945571891,49.8634157 0.882928533,51.7713933 2.31431369,53.2068765 L33.1268677,84.1025144 C36.2417074,87.2259778 40.3698113,89.1987047 44.7509818,89.6574493 C45.2643457,89.7111987 45.772723,89.7946977 46.2753659,89.9006965 C43.5409988,95.6828787 41.0065919,99.9978282 39.0935074,102.938544 C37.8802831,104.803272 36.8114192,106.283254 35.9502444,107.403991 C34.3059341,102.179553 31.4037702,92.0891708 30.7151296,83.968766 C30.6178921,82.8227794 29.615349,81.9747894 28.4699417,82.0700382 C27.3270277,82.1675371 26.4795659,83.1755253 26.5763047,84.3212619 C27.5205053,95.4576314 32.2340284,109.535966 33.063788,111.948688 L33.063788,114.672156 L31.1252721,114.672156 C29.9783689,114.672156 29.0483799,115.604645 29.0483799,116.754632 C29.0483799,117.904618 29.9783689,118.837107 31.1252721,118.837107 L33.063788,118.837107 L33.063788,125.917524 C33.063788,127.067511 33.993777,128 35.1406803,128 C36.2875835,128 37.2175725,127.067511 37.2175725,125.917524 L37.2175725,118.837107 L39.1560884,118.837107 C40.3029917,118.837107 41.2329806,117.904618 41.2329806,116.754632 C41.2329806,115.604645 40.3029917,114.672156 39.1560884,114.672156 L37.2175725,114.672156 L37.2175725,112.416183 C38.9838036,110.440456 44.2977057,103.937532 50.2087455,91.3179299 C51.5501236,92.0239216 52.7880312,92.930911 53.8696109,94.0151483 L57.8563464,98.0128514 C58.2617518,98.4195966 58.7933165,98.6228443 59.3248813,98.6228443 C59.856446,98.6228443 60.3880107,98.4195966 60.7934161,98.0128514 C61.6044762,97.1996109 61.6044762,95.8813764 60.7934161,95.0678859 L56.8066806,91.0701828 C55.3698102,89.6294497 53.7152776,88.4372136 51.9213713,87.5214744 C52.6581319,85.8252442 53.4001285,84.0325152 54.1408784,82.1437874 C56.9944237,82.7490303 59.6410277,84.1747636 61.7139307,86.2537392 L65.7006662,90.2514424 C66.1060716,90.6581876 66.6376363,90.8614352 67.1692011,90.8614352 C67.7007658,90.8614352 68.2323305,90.6581876 68.6377359,90.2514424 C69.448796,89.4382019 69.448796,88.1199673 68.6377359,87.3064769 L64.6510004,83.3087737 C62.1584804,80.809303 59.015716,79.0490736 55.6143998,78.2095835 C61.4157358,61.7520263 62.8122152,44.4414792 63.1410773,36.1570763 L66.2830936,39.3072894 C66.688499,39.7137846 67.2200637,39.9172822 67.7516285,39.9172822 C68.2829439,39.9172822 68.814758,39.7140346 69.2201633,39.3072894 C70.0312234,38.4940489 70.0312234,37.1753144 69.2201633,36.3623239 L67.2083454,34.3450975 C67.2078467,34.3445975 67.2075974,34.3443475 67.2068494,34.3435975 L62.6292094,29.7536513 C60.7807005,27.900173 59.7629485,25.4362019 59.7629485,22.8152326 C59.7629485,20.902755 60.3049849,19.0737765 61.3160051,17.5050449 L71.7064502,27.9234228 C78.151548,34.385847 82.0998872,42.9624965 82.8236829,52.0731398 L83.1246203,55.8613454 C83.4716833,60.2285442 85.364323,64.339996 88.4539807,67.4374597 C88.8593861,67.844205 89.3909508,68.0474526 89.9225156,68.0474526 C90.4540803,68.0474526 90.985645,67.844205 91.3910504,67.4374597 C92.2028585,66.6227193 92.2028585,65.3039847 91.3917984,64.4907442 Z M6.86826771,15.8183146 C7.5147721,15.1698222 8.37494956,14.8123264 9.28997892,14.8123264 C10.2050083,14.8123264 11.0649364,15.1695722 11.7119395,15.8183146 L13.0460872,17.156049 C11.9542851,17.5152947 10.928056,18.1272876 10.0611467,18.9960274 C9.20071993,19.8587673 8.57466033,20.8930052 8.2106432,22.0212419 L6.86776905,20.6747577 C6.22101533,20.0262653 5.86447801,19.1637754 5.86447801,18.2462862 C5.86447801,17.3287969 6.22126466,16.466557 6.86826771,15.8183146 Z M5.15389663,34.559595 C3.81825296,33.2203607 3.81825296,31.0418862 5.15389663,29.7026519 C6.48929097,28.3636676 8.66192471,28.3636676 9.99781771,29.7026519 L9.99806704,29.7029019 C10.0584041,29.7634012 10.1224811,29.8181506 10.1878047,29.8694 L13.1622735,32.851865 C12.0637396,33.2103608 11.0307786,33.8243536 10.1593815,34.6978434 C9.29895469,35.5605833 8.67314442,36.5945712 8.30887796,37.7225579 L5.15389663,34.559595 Z M51.4561274,77.4990918 C48.6128046,76.8908489 45.9759244,75.4671156 43.9090052,73.3946399 L30.6129056,60.0627961 C29.8020948,59.2495557 28.4871453,59.2495557 27.6758359,60.0627961 C26.8645264,60.8760366 26.8647758,62.1942712 27.6758359,63.0077616 L40.9719355,76.3396054 C43.4519892,78.8265763 46.5755553,80.5805557 49.9566761,81.4252958 C49.3126649,83.0402769 48.6689031,84.5780089 48.0316238,86.0374917 C47.0988923,85.7939946 46.1477105,85.6152467 45.1828158,85.5139979 C41.7458459,85.1542521 38.5075894,83.6065202 36.0639374,81.1562989 L5.25163273,50.260911 C4.60487901,49.6124186 4.24834169,48.7499287 4.24834169,47.8324395 C4.24834169,46.9149502 4.60462969,46.0527103 5.25163273,45.4039679 C5.89813713,44.7554755 6.75831459,44.3979797 7.67334395,44.3979797 C8.58837331,44.3979797 9.44830144,44.7552255 10.0953045,45.4039679 L10.0958031,45.4044679 C10.1558909,45.4649672 10.2199679,45.5194666 10.2852915,45.570716 L22.2764147,57.5940751 C22.68182,58.0005703 23.2133848,58.2040679 23.7449495,58.2040679 C24.2765143,58.2040679 24.808079,58.0008203 25.2134844,57.5940751 C26.0245445,56.7808346 26.0245445,55.4621001 25.2134844,54.6491096 L13.0962019,42.499252 C12.4494481,41.8507596 12.0929108,40.9882697 12.0929108,40.0707804 C12.0929108,39.1532912 12.4491988,38.2910513 13.0962019,37.6423089 C14.4318455,36.3033246 16.6047286,36.3038246 17.9401229,37.6423089 C17.9403723,37.6425589 17.9406216,37.6428089 17.9408709,37.6430589 L34.9673981,54.7153588 C35.3728035,55.122104 35.9043683,55.3253517 36.435933,55.3253517 C36.9672484,55.3253517 37.4990625,55.122104 37.9044678,54.7153588 C38.7155279,53.9021183 38.7155279,52.5833838 37.9044678,51.7703933 L12.9987151,26.797436 C12.3519614,26.1491936 11.995424,25.2867037 11.995424,24.3692144 C11.995424,23.4517252 12.351712,22.5894853 12.9987151,21.9407429 C14.3341094,20.6017586 16.5069925,20.6015086 17.8426362,21.9407429 L41.1202849,45.2809694 C41.5256903,45.6874646 42.057255,45.8909622 42.5888198,45.8909622 C43.1203845,45.8909622 43.6519493,45.6877146 44.0573546,45.2809694 C44.8684147,44.4677289 44.8684147,43.1489943 44.0573546,42.3360039 L14.7125875,12.9133487 C14.0658338,12.2648563 13.7092965,11.4023664 13.7092965,10.4848771 C13.7092965,9.56738788 14.0655845,8.70514799 14.7125875,8.05640559 C16.0482312,6.71742128 18.2211142,6.71792127 19.5565086,8.05640559 L50.1673572,38.7492959 C50.9784173,39.5625364 52.2936162,39.5625364 53.1044269,38.7492959 C53.915487,37.9360554 53.915487,36.6173209 53.1044269,35.8043304 L27.3928499,10.0241325 C26.0574556,8.68514822 26.0574556,6.50642375 27.3928499,5.16718945 C28.7284936,3.82870513 30.9011273,3.82820514 32.236771,5.16718945 L59.0825356,32.085124 C59.0421447,36.5358218 58.470937,58.0340699 51.4561274,77.4990918 Z" id="Shape"></path>
            </g>
        </g>
    </g>
</svg>