<?xml version="1.0" encoding="UTF-8" standalone="no"?>
<svg width="146px" height="145px" viewBox="0 0 146 145" version="1.1" xmlns="http://www.w3.org/2000/svg" xmlns:xlink="http://www.w3.org/1999/xlink">
    <!-- Generator: Sketch 48.1 (47250) - http://www.bohemiancoding.com/sketch -->
    <title>o_divino_nino</title>
    <desc>Created with Sketch.</desc>
    <defs></defs>
    <g id="6_Jesus" stroke="none" stroke-width="1" fill="none" fill-rule="evenodd" transform="translate(-115.000000, -95.000000)">
        <g id="Group-2" fill="#C490D1" fill-rule="nonzero">
            <path d="M260.967751,193.097523 C260.578312,183.035963 256.789509,173.858167 249.997361,166.483339 L249.997361,155.65509 C249.997361,154.956432 249.711626,154.2891 249.207518,153.810671 C248.704036,153.332242 248.027609,153.080687 247.335831,153.128783 L227.699099,154.358712 C224.05379,136.50275 209.465349,122.389416 191.133535,118.988205 L192.441272,97.6883142 C192.484195,96.9912384 192.239503,96.3071358 191.766099,95.7976978 C191.292381,95.2888925 190.63162,95 189.939841,95 L175.057519,95 C174.365741,95 173.70498,95.2885761 173.231262,95.7976978 C172.757231,96.306503 172.513166,96.990922 172.556089,97.6879978 L173.864139,118.988522 C155.531698,122.390049 140.943883,136.5018 137.298261,154.358396 L117.66153,153.128467 C116.969125,153.080371 116.293638,153.332242 115.789843,153.810355 C115.285735,154.288783 115,154.956432 115,155.65509 L115,170.685728 C115,171.384386 115.285735,172.051718 115.789843,172.530147 C116.255728,172.972504 116.87012,173.217098 117.506444,173.217098 C117.557826,173.217098 117.609834,173.215516 117.66153,173.212035 L136.593011,172.026088 C137.586816,183.072668 141.515666,194.012613 148.035239,203.817239 C155.631642,215.241626 166.583234,224.711795 179.706346,231.203492 C182.013214,232.344506 184.312562,233.372242 186.599379,234.293977 C186.65922,234.318025 186.717808,234.345237 186.779529,234.364855 C196.098799,238.09641 205.207215,240.000316 213.744475,240 C215.025268,240 216.293215,239.956017 217.547063,239.870584 C217.551136,239.870584 217.554896,239.871217 217.558969,239.871217 C217.579647,239.871217 217.600012,239.866787 217.62069,239.866154 C219.782811,239.715537 221.902949,239.43772 223.974837,239.030486 C235.666143,236.732635 245.814733,230.286819 252.5508,220.880567 C258.358543,212.77006 261.34779,202.903099 260.967751,193.097523 Z M244,167.009449 C243.95372,167.299823 243.952782,167.596758 244,167.887132 L244,168 L242.913663,167.929457 C242.89021,167.928145 242.86707,167.92552 242.843617,167.924864 L213,165.983135 C213.084118,164.999803 213.129773,164.005315 213.129773,162.999672 C213.129773,161.994357 213.084118,160.999869 213,160.016865 L244,158 L244,167.009449 Z M156,163.499531 C156,148.887707 167.888192,137 182.500782,137 C197.112433,137 209,148.887707 209,163.499531 C209,178.11198 197.112433,190 182.500782,190 C167.888192,189.999687 156,178.111667 156,163.499531 Z M224,155.385402 L214.238657,156 C211.331146,144.466468 202.365145,135.367626 191,132.417037 L191.514445,124 C207.661564,127.254155 220.499021,139.663319 224,155.385402 Z M186,100 L184.789626,121.336776 C184.787854,121.367441 184.785196,121.397783 184.784311,121.428448 L184.184586,132 C183.300207,131.913171 182.405197,131.866044 181.500738,131.866044 C180.595689,131.866044 179.700384,131.913171 178.815414,132 L178.226024,121.60953 C178.232521,121.457175 178.228977,121.302561 178.210079,121.146333 C178.20624,121.1147 178.199154,121.084681 178.194429,121.053371 L177,100 L186,100 Z M174.48556,124 L175,132.416883 C163.634645,135.367857 154.668732,144.466234 151.761248,156 L142,155.38539 C145.501265,139.662338 158.337958,127.25487 174.48556,124 Z M120,158 L151,160.016798 C150.915882,160.99977 150.870227,161.993897 150.870227,162.999508 C150.870227,164.005118 150.915882,164.999902 151,165.982873 L120,168 L120,158 Z M214.305667,234 C208.479264,233.999688 202.090264,233.046263 195.173909,230.889825 C201.521689,228.000535 207.396548,224.211169 212.699371,219.573829 C219.654114,213.492312 225.285118,206.256763 229.435686,198.068414 C230.059955,196.83701 229.559345,195.336364 228.3171,194.717698 C227.075485,194.097785 225.561697,194.594465 224.937743,195.826804 C217.349606,210.795516 203.979118,222.603512 188.16127,228.354949 C186.301994,227.592459 184.409365,226.74698 182.483068,225.811338 C155.147715,212.535767 143.746316,189.593038 142,171.637385 L152.365881,171 C155.868267,184.573517 168.307701,194.638454 183.073669,194.638454 C197.839007,194.638454 210.277812,184.573829 213.779884,171 L231.747431,172.10505 C231.293389,177.115835 230.270142,182.051121 228.693423,186.809511 C228.259519,188.118911 228.978498,189.529393 230.299405,189.959932 C230.560251,190.044792 230.825188,190.085038 231.085405,190.085038 C232.143263,190.085038 233.128437,189.418327 233.476756,188.367563 C235.187202,183.205152 236.293202,177.849935 236.774934,172.414227 L242.393352,172.759594 C242.793903,175.710657 243,178.709765 243,181.70201 C243,202.262736 233.6495,221.247315 217.326951,233.913268 C216.337372,233.970673 215.330487,234 214.305667,234 Z M249.329026,217.647837 C244.227788,224.505419 236.357988,230.337327 226,233 C231.70554,227.525038 236.510919,221.154572 240.109952,214.226103 C245.334438,204.167919 247.983623,193.314603 247.983623,181.968524 C247.983623,179.069351 247.8023,176.163904 247.44643,173.294528 L248.141716,173.336559 C248.194951,173.340009 248.248509,173.341577 248.301422,173.341577 C248.759246,173.341577 249.20481,173.220818 249.59617,173 C259.459553,185.827188 259.565056,203.888133 249.329026,217.647837 Z" id="o_divino_nino"></path>
        </g>
    </g>
</svg>