<?xml version="1.0" encoding="UTF-8" standalone="no"?>
<svg width="140px" height="140px" viewBox="0 0 140 140" version="1.1" xmlns="http://www.w3.org/2000/svg" xmlns:xlink="http://www.w3.org/1999/xlink">
    <!-- Generator: Sketch 48.1 (47250) - http://www.bohemiancoding.com/sketch -->
    <title>o_san_jose</title>
    <desc>Created with Sketch.</desc>
    <defs></defs>
    <g id="4_Jose" stroke="none" stroke-width="1" fill="none" fill-rule="evenodd" transform="translate(-118.000000, -118.000000)">
        <g id="Group-2" fill="#C490D1" fill-rule="nonzero">
            <g id="o_san_jose" transform="translate(118.000000, 118.000000)">
                <path d="M119.627452,20.6393576 C106.444069,7.38222698 88.8868094,0.0524625268 70.190364,0.000299785867 C70.123212,0 70.0572591,0 69.9898073,0 C51.3686081,0 33.8488223,7.22753747 20.6390578,20.3638544 C7.38222698,33.5475375 0.0521627409,51.1047966 0.000299785867,69.8009422 C-0.051862955,88.4973876 7.18017131,106.094818 20.3638544,119.352248 C33.5475375,132.609379 51.1044968,139.939143 69.8006424,139.991306 C69.8680942,139.991606 69.9331478,139.991606 70.0005996,139.991606 C88.6217987,139.991606 106.142784,132.763769 119.351949,119.627452 C132.609079,106.443769 139.938844,88.8868094 139.991006,70.1906638 C140.043169,51.4942184 132.811135,33.8964882 119.627452,20.6393576 Z M70.0002998,136.693961 C69.9373448,136.693961 69.8728908,136.693961 69.8099358,136.693662 C55.4510921,136.65379 41.7991435,132.106039 30.4642398,123.730021 C33.1997859,118.997302 36.8211991,114.731649 41.0475803,111.256831 C47.5682227,120.188951 58.1146895,126.004497 69.995803,126.004497 C81.866424,126.004497 92.4050964,120.199143 98.9269379,111.279914 C103.154818,114.755032 106.77773,119.016788 109.514775,123.741713 C98.1271092,132.152505 84.4107066,136.693961 70.0002998,136.693961 Z M105.817816,70.0851392 C106.871563,70.4164026 107.797602,71.0579443 108.480514,71.9546039 C109.35349,73.1003854 109.728223,74.517773 109.53576,75.9453533 C109.342698,77.3732334 108.605525,78.6401285 107.459743,79.5131049 C106.957901,79.8956317 106.402099,80.1762313 105.817816,80.3617987 L105.817816,70.0851392 Z M80.3174304,56.6637259 C81.1973019,57.786424 82.4117345,57.3196574 84.0920343,56.6487366 C90.5206424,54.0798715 97.668137,52.491606 102.084283,59.7527195 C102.210193,60.9143897 102.307323,62.0985439 102.378972,63.3336617 L95.4788009,75.5148608 C92.8244968,80.1999143 87.3234261,82.5577302 82.0996574,81.2509636 C74.1817131,79.2675803 65.8110921,79.2675803 57.8925482,81.2509636 C52.6702784,82.5589293 47.1677088,80.2002141 44.5134047,75.5148608 L38.1309636,64.247409 C40.006424,58.639015 45.3546039,52.4535332 55.5761028,49.9779015 C65.5391863,47.5646253 75.2501499,50.1949465 80.3174304,56.6637259 Z M85.7915203,52.4589293 C86.1902355,51.7373448 86.5850535,50.9465096 86.9432976,50.0909208 C88.7719914,45.725439 88.933576,41.5194433 87.4493362,37.7754176 C89.1665096,37.8926338 91.6460385,38.4583298 94.0880942,40.4177302 C97.3707495,43.0519486 99.7327623,47.539743 101.107281,53.6595717 C96.0870664,49.8843683 89.9267666,51.0826124 85.7915203,52.4589293 Z M83.483469,37.2001285 C84.9743041,39.6179015 85.4680514,42.3039829 84.9701071,45.2179015 C82.6449679,41.5077516 77.6169593,35.8978587 67.920985,34.3491649 C67.0192291,34.2016702 66.176531,34.8177302 66.0329336,35.7170878 C65.8893362,36.6161456 66.5014989,37.4615418 67.4008565,37.6051392 C79.6084368,39.5552463 83.2337473,48.7949465 83.5368308,49.6283512 C83.2637259,50.2066381 82.976531,50.7474518 82.689636,51.2432976 C81.7653961,49.6694218 80.3063383,47.6347752 78.1316916,45.6924625 C74.1493362,42.135803 66.9083084,38.2083084 55.0152034,39.6937473 C54.1116488,39.8067666 53.4710064,40.6308779 53.5837259,41.5347323 C53.697045,42.4382869 54.5208565,43.0777302 55.4247109,42.9662099 C63.9104497,41.9043683 70.7707495,43.6137473 75.8131478,48.0436831 C76.4885653,48.6372591 77.0842398,49.2428266 77.6088651,49.8379015 C71.5070236,45.9484797 63.2035546,44.7280514 54.7990578,46.7632976 C46.0162313,48.8905782 39.2182869,54.0193148 36.0114775,60.6637687 C35.3753319,52.3965739 36.1421842,40.5457388 44.1914347,33.8680086 C50.2216274,28.865182 56.3495503,26.3406852 62.4438972,26.3406852 C63.259015,26.3406852 64.0744325,26.3856531 64.8880514,26.4764882 C75.5892077,27.6666381 82.8293362,36.3850107 83.483469,37.2001285 Z M33.9660385,70.2404283 C34.0008137,71.2953747 34.0697645,72.3413276 34.1737901,73.435546 L34.1737901,80.2919486 C33.6692505,80.1075803 33.1895931,79.847666 32.7504069,79.5131049 C31.6046253,78.6401285 30.8674518,77.3729336 30.6743897,75.9453533 C30.4816274,74.517773 30.8563597,73.1006852 31.729636,71.9546039 C32.3184154,71.1811563 33.0897645,70.5995717 33.9660385,70.2404283 Z M37.4714347,69.7739615 L41.6441542,77.14 C45.0257388,83.1108351 52.03803,86.1158887 58.6932762,84.449379 C66.0877944,82.5979015 73.9038116,82.5979015 81.2983298,84.449379 C87.9541756,86.1170878 94.9655675,83.1105353 98.3474518,77.14 L102.520171,69.7739615 L102.520171,90.1821842 C102.520171,108.116274 87.9298929,122.706552 69.995803,122.706552 C52.0617131,122.706552 37.4714347,108.116274 37.4714347,90.1821842 L37.4714347,69.7739615 Z M117.026809,117.289122 C115.459229,118.848009 113.827794,120.319358 112.138801,121.70137 C109.175418,116.694647 105.285696,112.184668 100.758929,108.516188 C103.969636,103.149422 105.817816,96.8779015 105.817816,90.1821842 L105.817816,83.7586724 C107.125482,83.5104497 108.368694,82.9657388 109.458415,82.1356317 C111.304797,80.7287366 112.492848,78.6868951 112.803426,76.3863383 C113.114304,74.0857816 112.510236,71.8020128 111.10334,69.9556317 C109.78788,68.2294647 107.917816,67.0791863 105.800128,66.6828694 C105.549507,52.4046681 102.307923,42.8594861 96.1515203,37.9193148 C91.898758,34.5068522 87.4952034,34.3356745 85.5337045,34.507152 C83.4082227,32.0423126 76.0340899,24.4124625 65.2864668,23.2025268 C57.454561,22.3217559 49.649636,25.055803 42.0863383,31.3297216 C35.9203426,36.4452677 32.615803,44.9112206 32.5309636,55.8120343 C32.4961884,60.2437687 32.9890364,64.2021413 33.4528051,66.92 C31.7311349,67.4482227 30.2199143,68.4947752 29.1068094,69.9553319 C27.6999143,71.8017131 27.0958458,74.0854818 27.4067238,76.3860385 C27.7173019,78.6865953 28.9053533,80.728137 30.7517345,82.1353319 C31.7802998,82.9192719 32.9464668,83.4471949 34.1737901,83.7134047 L34.1737901,90.1818844 C34.1737901,96.867409 36.0165739,103.129336 39.2179872,108.490707 C34.6918201,112.159486 30.8029979,116.673362 27.8408137,121.68818 C26.0618844,120.23182 24.3456103,118.67863 22.7024839,117.02621 C10.1399572,104.393533 3.24877944,87.6253105 3.29824411,69.809636 C3.34770878,51.9939615 10.3321199,35.2641113 22.9647966,22.7012848 C35.5522056,10.1840257 52.245182,3.29764454 69.9901071,3.29764454 C70.0530621,3.29764454 70.1181156,3.29764454 70.1810707,3.29794433 C87.997045,3.34740899 104.726895,10.3321199 117.289422,22.9647966 C129.851949,35.5974732 136.743126,52.3656959 136.693662,70.1813704 C136.644197,87.997045 129.659186,104.726895 117.026809,117.289122 Z" id="Shape"></path>
                <circle id="Oval" cx="51.3311349" cy="74.1571306" r="3.24698073"></circle>
                <circle id="Oval" cx="88.6604711" cy="74.1571306" r="3.24698073"></circle>
                <path d="M66.0356317,94.4304497 C66.6471949,93.9160171 68.1200428,93.3152463 70.2575161,93.3152463 C72.3931906,93.3152463 73.8651392,93.9160171 74.4770021,94.4307495 C74.7860814,94.690364 75.1629122,94.8174732 75.5373448,94.8174732 C76.0071092,94.8174732 76.4741756,94.6175161 76.8003426,94.2298929 C77.3861242,93.5328908 77.2961884,92.4926338 76.5994861,91.9065525 C75.1928908,90.7238972 72.8218844,90.0176017 70.2575161,90.0176017 C67.6910493,90.0176017 65.3194433,90.7235974 63.9131478,91.9068522 C63.2161456,92.4929336 63.1265096,93.5331906 63.712591,94.2298929 C64.2986724,94.9268951 65.3386296,95.0162313 66.0356317,94.4304497 Z" id="Shape"></path>
                <path d="M71.7954176,95.7782869 L69.0973448,95.7782869 C68.1868951,95.7782869 67.4485225,96.5166595 67.4485225,97.4271092 C67.4485225,98.3375589 68.1868951,99.0759315 69.0973448,99.0759315 L71.7954176,99.0759315 C72.7058672,99.0759315 73.4442398,98.3375589 73.4442398,97.4271092 C73.4442398,96.5166595 72.7058672,95.7782869 71.7954176,95.7782869 Z" id="Shape"></path>
            </g>
        </g>
    </g>
</svg>