<?xml version="1.0" encoding="UTF-8" standalone="no"?>
<svg width="141px" height="141px" viewBox="0 0 141 141" version="1.1" xmlns="http://www.w3.org/2000/svg" xmlns:xlink="http://www.w3.org/1999/xlink">
    <!-- Generator: Sketch 48.1 (47250) - http://www.bohemiancoding.com/sketch -->
    <title>o_virgen</title>
    <desc>Created with Sketch.</desc>
    <defs></defs>
    <g id="3_Virgen" stroke="none" stroke-width="1" fill="none" fill-rule="evenodd" transform="translate(-117.000000, -95.000000)">
        <g id="Group-2" transform="translate(30.000000, 95.000000)" fill="#C490D1" fill-rule="nonzero">
            <g id="o_virgen" transform="translate(87.000000, 0.000000)">
                <path d="M75.484069,101.836847 C76.1524376,101.206389 76.1744013,100.163317 75.5325723,99.5067902 C74.8907432,98.8505628 73.8288579,98.8286886 73.1604893,99.4591463 C72.3090897,100.261901 71.186194,100.703881 69.9986273,100.703881 C68.8128909,100.703881 67.6909103,100.261602 66.8395107,99.4591463 C66.1711421,98.8286886 65.1092568,98.8502632 64.4674277,99.5067902 C63.8255987,100.163317 63.8475624,101.206689 64.515931,101.836847 C65.9954323,103.231705 67.942273,104 69.9986273,104 C72.0568119,104 74.0045677,103.232004 75.484069,101.836847 Z" id="Shape"></path>
                <path d="M61.2057666,79.227567 C60.4346793,78.7707029 59.4386424,79.0234049 58.9804773,79.7915133 C58.2436343,81.026488 56.9420556,81.7640015 55.4987762,81.7640015 C54.056973,81.7640015 52.7562798,81.026488 52.0194369,79.7915133 C51.5612717,79.0234049 50.5646444,78.7707029 49.7941476,79.227567 C49.0233555,79.684137 48.7700658,80.6770002 49.2282309,81.4451086 C50.5363043,83.6379388 52.9390145,85 55.4987762,85 C58.060014,85 60.4636099,83.6379388 61.7719784,81.4451086 C62.2298484,80.6770002 61.9765586,79.684137 61.2057666,79.227567 Z" id="Shape"></path>
                <path d="M85.4986716,85 C88.0598164,85 90.4633251,83.6378946 91.7716462,81.4452873 C92.2300899,80.677154 91.9765141,79.6842586 91.2057501,79.2273796 C90.4355764,78.771089 89.43869,79.0229167 88.9805415,79.7913442 C88.2437253,81.0266532 86.9418986,81.7641906 85.4986716,81.7641906 C84.0569207,81.7641906 82.7562747,81.0266532 82.0194585,79.7913442 C81.5610148,79.023505 80.5644236,78.7713832 79.7942499,79.2273796 C79.0234859,79.6842586 78.7699101,80.677154 79.2283538,81.4452873 C80.5366749,83.6376004 82.939298,85 85.4986716,85 Z" id="Shape"></path>
                <path d="M120.350823,20.6488754 C107.03561,7.33336117 89.3313118,0 70.499849,0 C51.6686882,0 33.9643897,7.33336117 20.6488754,20.6488754 C7.33336117,33.9643897 0,51.6686882 0,70.500151 C0,89.3316137 7.33336117,107.03561 20.6488754,120.351125 C33.9643897,133.666639 51.6686882,141 70.499849,141 C89.3313118,141 107.035308,133.666639 120.351125,120.351125 C133.666639,107.035308 141,89.3313118 141,70.500151 C141,51.6689902 133.666639,33.9646916 120.350823,20.6488754 Z M107.640408,115.232235 C103.447285,110.43371 98.3434924,106.452553 92.6391296,103.573498 C95.6108816,100.795897 98.2366036,97.4593947 100.393705,93.6509505 L100.393705,105.82843 C100.393705,106.745742 101.137398,107.489133 102.054408,107.489133 C102.971418,107.489133 103.715111,106.745742 103.715111,105.82843 L103.715111,87.7065407 C103.715111,69.3781198 88.8152862,54.4671232 70.5010568,54.4671232 C52.1868274,54.4671232 37.2870028,69.3853665 37.2870028,87.7225438 L37.2870028,105.82843 C37.2870028,106.745742 38.0303938,107.489133 38.9477055,107.489133 C39.8650173,107.489133 40.6084082,106.745742 40.6084082,105.82843 L40.6084082,93.9737307 C42.7168968,97.6309 45.2807198,100.882556 48.2156344,103.622111 C42.5692452,106.491806 37.5170856,110.445788 33.3617055,115.207173 L33.3617055,63.5949492 C33.3617055,43.0737969 50.0224789,26.3786017 70.5010568,26.3786017 C90.9796347,26.3786017 107.640408,43.0644365 107.640408,63.5741149 L107.640408,115.232235 Z M40.6407164,86.3589559 C41.3554225,70.4841478 54.4746719,57.7888306 70.5010568,57.7888306 C86.403342,57.7888306 99.4431796,70.2815421 100.342375,85.9757865 C94.932711,100.243638 83.2175103,109.446649 70.4156061,109.446649 C57.7643729,109.446649 46.1053342,100.392498 40.6407164,86.3589559 Z M30.689182,124.626679 C35.3787045,116.507353 42.514291,109.941236 50.9832709,105.964004 C56.7893895,110.413178 63.4940992,112.768054 70.4159081,112.768054 C77.4482291,112.768054 84.1653186,110.299948 89.8736067,105.920826 C98.3990505,109.89534 105.587176,116.481083 110.308704,124.628491 C98.8404954,133.099886 85.0225432,137.678595 70.500151,137.678595 C55.976551,137.678595 42.1576929,133.099282 30.689182,124.626679 Z M118.002589,118.002287 C116.38597,119.618906 114.700508,121.141921 112.954355,122.571031 C112.328723,121.514522 111.662932,120.483981 110.961813,119.479407 L110.961813,63.5741149 C110.961813,41.2331344 92.8112388,23.0571963 70.5010568,23.0571963 C48.1908748,23.0571963 30.0403001,41.2424947 30.0403001,63.5949492 L30.0403001,119.461894 C29.337068,120.471299 28.6694656,121.506672 28.0429277,122.568616 C26.2979821,121.140411 24.6137276,119.618302 22.9977129,118.002589 C10.3093404,105.313915 3.3214054,88.4438927 3.3214054,70.500151 C3.3214054,52.5561073 10.3093404,35.6860854 22.9977129,22.9977129 C35.6860854,10.3093404 52.5561073,3.3214054 70.499849,3.3214054 C88.4438927,3.3214054 105.313915,10.3093404 118.002589,22.9977129 C130.69066,35.6857835 137.678595,52.5561073 137.678595,70.500151 C137.678595,88.4438927 130.690962,105.313915 118.002589,118.002287 Z" id="Shape"></path>
            </g>
        </g>
    </g>
</svg>