<?xml version="1.0" encoding="UTF-8" standalone="no"?>
<svg width="161px" height="166px" viewBox="0 0 161 166" version="1.1" xmlns="http://www.w3.org/2000/svg" xmlns:xlink="http://www.w3.org/1999/xlink">
    <!-- Generator: Sketch 48.1 (47250) - http://www.bohemiancoding.com/sketch -->
    <title>creditos</title>
    <desc>Created with Sketch.</desc>
    <defs></defs>
    <g id="8_Creditos" stroke="none" stroke-width="1" fill="none" fill-rule="evenodd" transform="translate(-107.000000, -96.000000)">
        <g id="creditos" transform="translate(107.000000, 96.000000)" fill="#B5FFE1" fill-rule="nonzero">
            <circle id="Oval" cx="141" cy="109" r="3"></circle>
            <circle id="Oval" cx="17" cy="109" r="3"></circle>
            <path d="M157.756988,159.514328 L129.915651,159.514328 L129.745444,79.8304375 C129.741553,78.0417227 128.29074,76.5947344 126.50308,76.5947344 C126.500811,76.5947344 126.498217,76.5947344 126.495947,76.5947344 C124.705045,76.598625 123.256502,78.0533945 123.260392,79.8443789 L123.430599,159.514328 L114.012799,159.514328 L113.929479,124.061656 C113.925264,122.273266 112.474451,120.826602 110.687115,120.826602 C110.684521,120.826602 110.681928,120.826602 110.679334,120.826602 C108.888432,120.830816 107.439888,122.28591 107.444427,124.076895 L107.527748,159.514328 L99.654455,159.514328 L99.654455,116.600734 C108.832668,115.789215 116.049124,108.24659 116.049124,99.0877344 L116.049124,67.6631562 C116.049124,62.6662969 114.988977,57.7683242 112.961081,53.2448242 C119.364433,53.6724687 125.324923,56.2778906 129.910463,60.7060703 C134.928492,65.5518437 137.700111,71.9953672 137.714376,78.852918 L137.773706,97.3061523 C137.779541,99.0935703 139.23003,100.538613 141.016069,100.538613 C141.019635,100.538613 141.023202,100.538613 141.026768,100.538613 C142.817346,100.532777 144.264593,99.0763867 144.259081,97.2854023 L144.199752,78.8357344 C144.181272,70.2115156 140.706454,62.1160977 134.415277,56.0408867 C130.821801,52.5707734 126.553656,50.0006914 121.901978,48.4415234 C125.196862,45.3053555 127.252964,40.8797695 127.242589,35.9827695 C127.222164,26.5343867 119.529777,18.86175 110.086041,18.86175 C110.073721,18.86175 110.061077,18.86175 110.049082,18.86175 C107.297887,18.8679102 104.562254,19.5416367 102.138181,20.8103047 C100.551527,21.6409531 99.9384576,23.6005312 100.769068,25.1872578 C101.600003,26.7739844 103.559816,27.387082 105.145821,26.5564336 C106.671525,25.7578828 108.325938,25.3509883 110.063347,25.3470977 C115.95705,25.3441797 120.745218,30.1118164 120.757862,35.9963867 C120.770506,41.880957 115.993361,46.6787461 110.109059,46.6913906 C109.969327,46.6917148 109.832838,46.7037109 109.698293,46.7212187 C109.525492,46.7283516 109.353016,46.7345117 109.179891,46.7442383 C104.495144,40.3324883 97.9183429,35.6812461 90.4279351,33.3209336 C94.4046206,29.8316914 96.9227126,24.7177891 96.9227126,19.0235352 C96.9214158,8.53376172 88.3883681,0 77.8993981,0 C67.4101039,0 58.876732,8.53376172 58.876732,19.0235352 C58.876732,24.9936992 61.6434884,30.3277461 65.9596155,33.8179609 C59.0838983,36.2995313 53.0582439,40.7448945 48.6821392,46.7257578 C48.1686001,46.7027383 47.6557095,46.6891211 47.1454125,46.6891211 C46.902908,46.6891211 46.6610518,46.6930117 46.4195199,46.6981992 C46.3601906,46.694957 46.3018339,46.6891211 46.2418561,46.6891211 C40.3575547,46.6891211 35.5703593,41.901707 35.5703593,36.0171367 C35.5703593,30.1325664 40.3575547,25.3451523 46.2418561,25.3451523 C48.0204389,25.3451523 49.7798937,25.7906289 51.3295885,26.6332734 C52.9029503,27.4882383 54.8715166,26.9065898 55.727415,25.3331562 C56.582665,23.7597227 56.0007189,21.7907422 54.4273572,20.9351289 C51.92969,19.5769766 49.0990654,18.8591562 46.2415319,18.8591562 C36.781261,18.8591562 29.0846595,26.5561094 29.0846595,36.0168125 C29.0846595,41.1686484 31.3702973,45.7939531 34.9767419,48.941793 C22.7176184,53.6692266 14.026035,65.3187305 14.026035,78.9060898 L14.026035,97.2957773 C14.026035,99.0867617 15.4778202,100.538613 17.2687228,100.538613 C19.0596253,100.538613 20.5114106,99.0867617 20.5114106,97.2957773 L20.5114106,78.9060898 C20.5114106,65.4574961 31.2477482,54.393207 44.8733913,53.2749766 C42.8545734,57.7897227 41.7986412,62.6766719 41.7986412,67.6631562 L41.7986412,99.0877344 C41.7986412,108.427828 49.3029897,116.087496 58.739918,116.641262 L58.739918,159.514004 L49.906009,159.514004 L49.906009,124.068141 C49.906009,122.277156 48.4542238,120.825305 46.6633213,120.825305 C44.8724187,120.825305 43.4206335,122.277156 43.4206335,124.068141 L43.4206335,159.514328 L35.4497554,159.514328 L35.4497554,79.8699922 C35.4497554,78.0790078 33.9979702,76.6271562 32.2070676,76.6271562 C30.4161651,76.6271562 28.9643799,78.0790078 28.9643799,79.8699922 L28.9643799,159.514328 L3.24268779,159.514328 C1.45178524,159.514328 0,160.96618 0,162.757164 C0,164.548148 1.45146103,166 3.24268779,166 L157.757312,166 C159.548215,166 161,164.548148 161,162.757164 C160.999352,160.96618 159.547891,159.514328 157.756988,159.514328 Z M65.3617834,19.0235352 C65.3617834,12.1102187 70.9860733,6.48567187 77.8990739,6.48567187 C84.8120745,6.48567187 90.4360402,12.1102187 90.4360402,19.0235352 C90.4360402,25.9368516 84.8117503,31.5613984 77.8990739,31.5613984 C70.9863975,31.5613984 65.3617834,25.9368516 65.3617834,19.0235352 Z M96.411443,65.5135859 C94.6205404,65.5135859 93.1687552,66.9654375 93.1687552,68.7564219 L93.1687552,159.514328 L81.6199625,159.514328 L81.6199625,114.400262 C81.6199625,112.609277 80.1681773,111.157426 78.3772747,111.157426 C76.5863722,111.157426 75.1345869,112.609277 75.1345869,114.400262 L75.1345869,159.514652 L65.2252935,159.514652 L65.2252935,68.7564219 C65.2252935,66.9654375 63.7735083,65.5135859 61.9826058,65.5135859 C60.1917032,65.5135859 58.739918,66.9654375 58.739918,68.7564219 L58.739918,110.140027 C52.8825254,109.608309 48.2836925,104.855586 48.2836925,99.0880586 L48.2836925,67.6634805 C48.2836925,62.0512539 49.9157352,56.5884922 53.0034535,51.8662461 C58.6614606,43.2131719 68.3512679,38.0470703 78.9235583,38.0470703 C89.5133558,38.0470703 99.2119166,43.2264648 104.866682,51.9022344 C107.939162,56.616375 109.563424,62.0664922 109.563424,67.6634805 L109.563424,99.0880586 C109.563424,104.674996 105.24827,109.309055 99.6541308,110.077453 L99.6541308,68.7564219 C99.654455,66.9654375 98.2023455,65.5135859 96.411443,65.5135859 Z" id="Shape"></path>
        </g>
    </g>
</svg>