<?xml version="1.0" encoding="UTF-8" standalone="no"?>
<svg width="150px" height="143px" viewBox="0 0 150 143" version="1.1" xmlns="http://www.w3.org/2000/svg" xmlns:xlink="http://www.w3.org/1999/xlink">
    <!-- Generator: Sketch 48.1 (47250) - http://www.bohemiancoding.com/sketch -->
    <title>gozos</title>
    <desc>Created with Sketch.</desc>
    <defs></defs>
    <g id="5_Gozos" stroke="none" stroke-width="1" fill="none" fill-rule="evenodd" transform="translate(-113.000000, -118.000000)">
        <g id="Group-2" fill="#E106AA" fill-rule="nonzero">
            <g id="gozos" transform="translate(113.000000, 118.000000)">
                <path d="M23.4037114,139.035552 C20.5050809,135.778545 18.380982,131.907591 17.261368,127.841049 C16.9025799,126.538246 15.4528078,125.747021 14.0213101,126.073554 C12.5907262,126.400365 11.7220812,127.721755 12.0808693,129.024835 C13.38871,133.774682 15.8697696,138.295651 19.2554139,142.099468 C19.782936,142.692332 20.5538127,143 21.3310855,143 C21.921959,143 22.516792,142.822169 23.0111155,142.456796 C24.1569228,141.61064 24.332662,140.078959 23.4037114,139.035552 Z" id="Shape"></path>
                <path d="M63.5737886,94.2377355 C62.440482,94.2377355 61.3593124,94.461919 60.3710953,94.8654492 L60.3710953,70.6512747 C60.3710953,66.2805819 56.7799079,62.7249141 52.3655539,62.7249141 C51.3755493,62.7249141 50.4275521,62.9048509 49.5516527,63.2316868 C49.1950366,59.1851751 45.7563868,56 41.5788831,56 C37.1645291,56 33.5736396,59.5556678 33.5736396,63.9260656 L33.5736396,64.8213245 C32.706678,64.5024531 31.769704,64.327236 30.7919143,64.327236 C26.3775603,64.327236 22.7866708,67.8829038 22.7866708,72.2533015 L22.7866708,75.6355221 C21.9197092,75.3166507 20.9830332,75.1414336 20.0055414,75.1414336 C15.5911874,75.1414336 12,78.6971014 12,83.0677941 L12,119.446282 C12,120.874566 13.1693554,122.032356 14.6119081,122.032356 C16.0544607,122.032356 17.2238161,120.874566 17.2238161,119.446282 L17.2238161,83.0677941 C17.2238161,81.5492461 18.4715258,80.3138772 20.0055414,80.3138772 C21.5392591,80.3138772 22.7866708,81.5492461 22.7866708,83.0677941 L22.7866708,106.440101 C22.7866708,107.868385 23.9560263,109.026175 25.3985789,109.026175 C26.8411315,109.026175 28.010487,107.868385 28.010487,106.440101 L28.010487,72.2533015 C28.010487,70.7347535 29.2581967,69.4996796 30.7922122,69.4996796 C32.3259299,69.4996796 33.5733417,70.7350485 33.5733417,72.2533015 L33.5733417,104.204461 C33.5733417,105.632745 34.7426971,106.790535 36.1852497,106.790535 C37.6278024,106.790535 38.7971578,105.632745 38.7971578,104.204461 L38.7971578,63.9263605 C38.7971578,62.4078125 40.0448675,61.1727386 41.5785852,61.1727386 C43.1123028,61.1727386 44.3597146,62.4081075 44.3597146,63.9263605 L44.3597146,70.6512747 L44.3597146,105.943062 C44.3597146,107.371347 45.52907,108.529137 46.9716226,108.529137 C48.4141753,108.529137 49.5835307,107.371347 49.5835307,105.943062 L49.5835307,70.6512747 C49.5835307,69.1327266 50.8312404,67.8973577 52.3646601,67.8973577 C53.8980799,67.8973577 55.1463854,69.1327266 55.1463854,70.6512747 L55.1463854,117.385269 C55.1463854,118.813553 56.3157409,119.971343 57.7582935,119.971343 C59.2008461,119.971343 60.3702015,118.813553 60.3702015,117.385269 L60.3702015,102.581195 C60.3702015,100.832564 61.8067957,99.4101791 63.5728948,99.4101791 C65.3389939,99.4101791 66.775588,100.832564 66.775588,102.581195 L66.775588,121.227655 C66.775588,129.223631 61.0408306,136.228184 53.1395629,137.883307 C51.7282924,138.178875 50.8261757,139.551114 51.1249944,140.948721 C51.3850829,142.165506 52.4695297,143.000295 53.6776154,143 C53.8566683,143 54.0384025,142.981711 54.2210305,142.943364 C64.5226795,140.785893 72,131.653072 72,121.22736 L72,102.5809 C72.0005958,97.9804195 68.2202261,94.2377355 63.5737886,94.2377355 Z" id="Shape"></path>
                <path d="M130.994975,75.129629 C130.017473,75.129629 129.08049,75.304738 128.213818,75.6234129 L128.213818,72.2432781 C128.213818,67.8752808 124.622595,64.3221005 120.208197,64.3221005 C119.230696,64.3221005 118.293712,64.4972096 117.42704,64.8158844 L117.42704,63.9211775 C117.42704,59.5531802 113.835817,56 109.421419,56 C105.243576,56 101.80519,59.1835056 101.44857,63.2275218 C100.572662,62.9008874 99.6243576,62.7210616 98.6346411,62.7210616 C94.2202432,62.7210616 90.6293181,66.2745367 90.6293181,70.642534 L90.6293181,94.8417755 C89.6413891,94.4384942 88.5599108,94.2144489 87.426593,94.2144489 C82.7801093,94.2144489 79,97.9548248 79,102.552468 L79,121.187429 C79,131.606121 86.4773947,140.7339 96.779146,142.890041 C96.96118,142.928364 97.1432139,142.946642 97.3225665,142.946642 C98.5306642,142.946642 99.6154198,142.112663 99.8752129,140.896628 C100.173737,139.499883 99.2716109,138.12849 97.8606244,137.833104 C89.9592782,136.179297 84.2244639,129.179063 84.2244639,121.187724 L84.2244639,102.552763 C84.2244639,100.805211 85.6610722,99.3837027 87.4271889,99.3837027 C89.1933056,99.3837027 90.6299139,100.805211 90.6299139,102.552763 L90.6299139,117.347707 C90.6299139,118.775111 91.799281,119.932186 93.2418479,119.932186 C94.6844149,119.932186 95.8537819,118.775111 95.8537819,117.347707 L95.8537819,70.6422392 C95.8537819,69.1246276 97.101504,67.8900206 98.634939,67.8900206 C100.168374,67.8900206 101.416394,69.1246276 101.416394,70.6422392 L101.416394,105.912262 C101.416394,107.339666 102.585761,108.496742 104.028328,108.496742 C105.470895,108.496742 106.640262,107.339666 106.640262,105.912262 L106.640262,70.6422392 L106.640262,63.9214723 C106.640262,62.4038608 107.887984,61.1695485 109.421419,61.1695485 C110.954854,61.1695485 112.202874,62.4041556 112.202874,63.9214723 L112.202874,91.5093978 C112.202874,92.9368016 113.372241,94.0938772 114.814808,94.0938772 C116.257375,94.0938772 117.426742,92.9368016 117.426742,91.5093978 L117.426742,72.2435729 C117.426742,70.7259613 118.674464,69.4916491 120.207899,69.4916491 C121.741334,69.4916491 122.989652,70.7262561 122.989652,72.2435729 L122.989652,106.409289 C122.989652,107.836693 124.159019,108.993768 125.601586,108.993768 C127.044153,108.993768 128.21352,107.836693 128.21352,106.409289 L128.21352,83.0516909 C128.21352,81.5340794 129.461242,80.2991775 130.994677,80.2991775 C132.528112,80.2991775 133.776132,81.5337846 133.776132,83.0516909 L133.776132,119.407744 C133.776132,126.441584 131.310481,133.324194 126.833518,138.78795 C125.924838,139.896973 126.09704,141.524249 127.217249,142.423083 C127.701382,142.811035 128.282937,143.000294 128.860619,143 C129.620931,143 130.374987,142.673071 130.890998,142.043386 C136.120229,135.661634 139,127.623128 139,119.407744 L139,83.0511013 C139.000596,78.683104 135.409373,75.129629 130.994975,75.129629 Z" id="Shape"></path>
                <path d="M114.5,97 C113.119254,97 112,98.1817759 112,99.6396507 L112,105.360349 C112,106.818224 113.119254,108 114.5,108 C115.880746,108 117,106.818224 117,105.360349 L117,99.6396507 C117.000285,98.182077 115.880746,97 114.5,97 Z" id="Shape"></path>
                <path d="M74.5,0 C73.119254,0 72,1.15036992 72,2.56950143 L72,34.4304986 C72,35.8496301 73.119254,37 74.5,37 C75.880746,37 77,35.8496301 77,34.4304986 L77,2.56950143 C77,1.15036992 75.8804608,0 74.5,0 Z" id="Shape"></path>
                <path d="M50.8323354,26.4388992 L47.5106779,17.7630608 C46.9813494,16.3797229 45.3564567,15.6605815 43.8801645,16.1572111 C42.4048435,16.653537 41.6382075,18.1780318 42.167536,19.5613696 L45.4888698,28.2372081 C45.9048863,29.323661 46.9962418,30 48.1607645,30 C48.479009,30 48.8027573,29.9493049 49.1197069,29.8427542 C50.5950279,29.3464283 51.3619876,27.8222371 50.8323354,26.4388992 Z" id="Shape"></path>
                <path d="M24.459787,33.7873217 L15.4709527,21.9876706 C14.613077,20.8610275 13.0373519,20.6700409 11.951719,21.5606198 C10.8660862,22.4511987 10.6820515,24.0861508 11.540213,25.2127939 L20.5293331,37.012445 C21.0237118,37.6616215 21.7564211,38 22.4962746,38 C23.040377,38 23.5887659,37.8170206 24.048281,37.4394958 C25.1339138,36.5489169 25.3179485,34.9139648 24.459787,33.7873217 Z" id="Shape"></path>
                <path d="M30.4707871,42.3150494 L28.3795673,39.8638633 C27.5391601,38.8786157 25.9955207,38.7112948 24.9319941,39.4903097 C23.8690273,40.2693246 23.6884602,41.6994642 24.5291473,42.6849712 L26.6203671,45.1361573 C27.1046791,45.7037512 27.8224686,46 28.5472568,46 C29.0802799,46 29.6175022,45.8399427 30.0676604,45.5097109 C31.131187,44.730696 31.3114742,43.3005564 30.4707871,42.3150494 Z" id="Shape"></path>
                <path d="M106.119802,16.157121 C104.644455,15.6608027 103.01921,16.3793259 102.489224,17.762946 L99.1678313,26.4386506 C98.637846,27.8222707 99.4048193,29.3458312 100.88049,29.8427566 C101.197122,29.9493057 101.520876,30 101.839126,30 C103.003346,30 104.094721,29.3233679 104.511068,28.2372352 L107.832461,19.5615306 C108.361799,18.1782141 107.595149,16.6540464 106.119802,16.157121 Z" id="Shape"></path>
                <path d="M149.545728,48.1659144 C148.754615,46.9236645 147.204976,46.6276216 146.083762,47.5031927 L139.05244,52.9980371 C137.931226,53.8745501 137.663744,55.5914731 138.454289,56.833723 C138.93825,57.5937651 139.706411,58 140.486473,58 C140.981201,58 141.48103,57.8367526 141.915972,57.4964446 L148.947293,52.0016002 C150.068791,51.1254012 150.336273,49.4081642 149.545728,48.1659144 Z" id="Shape"></path>
                <path d="M10.996911,53.1539146 L4.03177017,47.541833 C2.9211607,46.6470954 1.3428204,46.885221 0.506417766,48.0733907 C-0.329697742,49.2618676 -0.107460997,50.9508691 1.00314848,51.8459139 L7.96828927,57.4579955 C8.42195084,57.8233262 8.95342399,58 9.4803031,58 C10.2437753,58 10.9983466,57.6294459 11.4933545,56.9264378 C12.3297572,55.7376536 12.1075204,54.0486521 10.996911,53.1539146 Z" id="Shape"></path>
                <path d="M139.129634,21.5819491 C138.136801,20.6574873 136.696292,20.8557402 135.911225,22.0252474 L133.493824,25.6270465 C132.70928,26.7965537 132.877583,28.4937092 133.870416,29.4181709 C134.291174,29.810059 134.792164,30 135.289757,30 C135.966106,30 136.636445,29.6484398 137.088564,28.9748726 L139.505964,25.3730735 C140.29077,24.2035663 140.122467,22.5064108 139.129634,21.5819491 Z" id="Shape"></path>
                <path d="M131.042242,30.5312002 C129.949907,29.6872175 128.364036,29.8684925 127.500349,30.9359072 L118.54337,42.0077344 C117.67997,43.07543 117.865477,44.6248394 118.957813,45.4688221 C119.420862,45.8265943 119.972494,46 120.519812,46 C121.26443,46 122.001857,45.6790449 122.499419,45.0641151 L131.456398,33.9922879 C132.320085,32.9245923 132.134578,31.3751829 131.042242,30.5312002 Z" id="Shape"></path>
            </g>
        </g>
    </g>
</svg>