<?xml version="1.0" encoding="UTF-8" standalone="no"?>
<svg width="137px" height="137px" viewBox="0 0 137 137" version="1.1" xmlns="http://www.w3.org/2000/svg" xmlns:xlink="http://www.w3.org/1999/xlink">
    <!-- Generator: Sketch 48.1 (47250) - http://www.bohemiancoding.com/sketch -->
    <title>villancicos</title>
    <desc>Created with Sketch.</desc>
    <defs>
        <polygon id="path-1" points="0.189377335 0.648318804 0.189377335 136.996844 136.348525 136.996844 136.348525 0.648318804"></polygon>
    </defs>
    <g id="7_Villancicos_B" stroke="none" stroke-width="1" fill="none" fill-rule="evenodd" transform="translate(-120.000000, -117.000000)">
        <g id="Group-2">
            <g id="villancicos" transform="translate(120.000000, 117.000000)">
                <g id="Group-3">
                    <mask id="mask-2" fill="white">
                        <use xlink:href="#path-1"></use>
                    </mask>
                    <g id="Clip-2"></g>
                    <path d="M105.612583,0.648318804 L30.7485666,0.648318804 C13.7961389,0.648318804 0,14.4444577 0,31.3968854 L0,106.260902 C0,123.21333 13.7961389,136.996844 30.7485666,136.996844 L105.612583,136.996844 C122.565011,136.996844 136.348525,123.21333 136.348525,106.260902 L136.348525,31.3968854 C136.348525,14.4444577 122.565011,0.648318804 105.612583,0.648318804 Z M131.307932,106.260902 C131.307932,120.426327 119.778008,131.95625 105.612583,131.95625 L30.7485666,131.95625 C16.583142,131.95625 5.05637484,120.426327 5.05637484,106.260902 L5.05637484,31.3968854 C5.05637484,17.2188356 16.583142,5.70469365 30.7485666,5.70469365 L105.612583,5.70469365 C119.778008,5.70469365 131.307932,17.2188356 131.307932,31.3968854 L131.307932,106.260902 Z" id="Fill-1" fill="#E106AA" mask="url(#mask-2)"></path>
                </g>
                <path d="M107.165726,22.0238426 L51.8565395,29.248495 C50.6059398,29.4097455 49.6727033,30.4847485 49.6727033,31.7557814 L49.6727033,92.5219062 C46.2225563,89.1609409 41.3144238,87.0362292 35.8532622,87.0362292 C25.4556881,87.0362292 17,94.6561033 17,104.030762 C17,113.392773 25.4556881,121 35.8532622,121 C46.247694,121 54.7065243,113.392773 54.7065243,104.018115 L54.7065243,52.4053241 L104.98189,45.8351588 L104.98189,76.2039932 C101.56945,72.8714839 96.721019,70.7847134 91.3321283,70.7847134 C81.0319627,70.7847134 72.6485455,78.4045875 72.6485455,87.7665988 C72.6485455,97.1286101 81.0319627,104.748484 91.3321283,104.748484 C101.629152,104.748484 110,97.1286101 110,87.7665988 L110,24.531129 C110,23.8007593 109.695206,23.1083309 109.154745,22.6277414 C108.601716,22.1471518 107.875866,21.9226659 107.165726,22.0238426 Z M35.8532622,115.950648 C28.217691,115.950648 22.0181099,110.600927 22.0181099,104.018115 C22.0181099,97.4479493 28.217691,92.1013903 35.8532622,92.1013903 C43.4731223,92.1013903 49.6727033,97.4479493 49.6727033,104.018115 C49.6727033,110.600927 43.4731223,115.950648 35.8532622,115.950648 Z M54.7065243,47.3053835 L54.7065243,33.9785082 L104.98189,27.4083429 L104.98189,40.7352181 L54.7065243,47.3053835 Z M91.3321283,99.6833231 C83.8065344,99.6833231 77.6823665,94.3367641 77.6823665,87.7665988 C77.6823665,81.1837864 83.8065344,75.8340657 91.3321283,75.8340657 C98.8545799,75.8340657 104.98189,81.1837864 104.98189,87.7665988 C104.98189,94.3367641 98.8545799,99.6833231 91.3321283,99.6833231 Z" id="Fill-4" fill="#E106AA"></path>
            </g>
        </g>
    </g>
</svg>